<svg xmlns="http://www.w3.org/2000/svg" xmlns:xlink="http://www.w3.org/1999/xlink" version="1.1" id="Layer_1" x="0px" y="0px" style="enable-background:new 0 0 476 418.9;" xml:space="preserve" viewBox="85.3 80.1 301.5 255.2">
<style type="text/css">
	.st0{fill:#FFDE7F;}
	.st1{fill:#8CAB92;}
	.st2{fill:#907E45;}
	.st3{fill:#506250;}
	.st4{fill:#504626;}
	.st5{fill:#2B372B;}
	.st6{fill:#FFFFFF;}
	.st7{fill:#E6AF0F;}
	.st8{fill:#1D1D1D;}
</style>
<g>
	<path class="st0" d="M234.1,330.3c-108.7-33.7-108.7-117.1-108.7-117.1v-128h219.8v128c0,0,0,83.4-108.7,117.1H234.1z"/>
	<path class="st1" d="M235.3,312.8c37.8-12.5,64.8-32.7,80.3-60.1c11.7-20.7,12.3-38.5,12.4-39.3v-59.2L183.4,286.7   C183.4,286.7,210.6,308.9,235.3,312.8"/>
	<path class="st2" d="M327.9,154.1l-4.7,4.3l0,0L327.9,154.1L327.9,154.1z M282.2,196.1l-14,12.8l0,0L282.2,196.1L282.2,196.1z    M204.8,267.1l-21.4,19.6L204.8,267.1L204.8,267.1 M188.4,290.4c8.2,6,15.6,10.4,22.1,13.6C201.2,299.4,193.2,294,188.4,290.4    M244.2,309.6c-2.6,1-5.2,1.9-8,2.8c1.4-0.5,3.9-1.3,4.9-1.7C241.9,310.5,243.2,310,244.2,309.6 M231.6,312.1   c2.4,0.6,3.7,0.7,3.7,0.7C234.1,312.6,232.8,312.4,231.6,312.1"/>
	<path class="st3" d="M327.9,154.1l-4.7,4.3h2.8L327.9,154.1 M282.2,196.1l-14,12.8c-1.5,3-2.5,6.7-3.3,10.9l17.3-15.9V196.1z    M204.8,267.1l-21.4,19.6c1.7,1.3,3.3,2.6,5,3.8c4.9,3.5,12.8,9,22.1,13.6c9.6,4.8,17,7,21.1,8c1.3,0.3,2.5,0.5,3.7,0.7   c0,0,0.4-0.1,0.9-0.3c2.7-0.9,5.4-1.9,8-2.8c1-0.4,1.8-0.7,1.8-0.7c-0.1,0-0.3,0-0.4,0c-26.1,0-53.2-22.7-53.2-22.7l15-13.8   c-2.4-1.1-2.9-2.1-2.9-2.1S204.6,269.1,204.8,267.1"/>
	<path class="st1" d="M327.9,102.5H142.7v110.6c0,0,0.8,22.6,12.4,39.3L327.9,102.5z"/>
	<path class="st2" d="M205.4,256.2c-0.2,4.6-0.4,8.4-0.6,10.9l8.7-8C209.4,258.1,206.9,257,205.4,256.2"/>
	<path class="st3" d="M263.2,256.2c-3.5,1.8-12.8,4.8-28.9,4.8c-5.4,0-9.9-0.3-13.6-0.7l-13.3,12.2c3.5,1.7,11.1,3.8,26.8,3.8   c26.5,0,29.8-5.9,29.8-5.9S263.5,264.5,263.2,256.2"/>
	<polyline class="st4" points="213.5,259.1 204.8,267.1 204.8,267.1 213.5,259.1 213.5,259.1  "/>
	<path class="st5" d="M213.5,259.1l-8.7,8c-0.2,2.1-0.3,3.3-0.3,3.3s0.5,1,2.9,2.1l13.3-12.2C217.9,260,215.5,259.5,213.5,259.1"/>
	<path class="st2" d="M273.2,155.9h-6.8L201.7,212c4.2,11.6,4.3,31,3.7,44.2c1.4,0.9,4,2,8.1,2.9l54.7-50.2c0.2-0.3,0.3-0.6,0.5-1   C274.5,197.5,274.2,172.6,273.2,155.9"/>
	<path class="st3" d="M264.9,219.8l-44.1,40.5c3.7,0.4,8.2,0.7,13.6,0.7c16.1,0,25.3-3,28.9-4.8   C262.7,245.6,262.7,231.1,264.9,219.8"/>
	<polyline class="st4" points="268.2,208.9 213.5,259.1 213.5,259.1 268.2,208.9 268.2,208.9  "/>
	<path class="st5" d="M268.2,208.9l-54.7,50.2c2,0.5,4.4,0.9,7.2,1.2l44.1-40.5C265.6,215.6,266.7,211.9,268.2,208.9"/>
	<path class="st3" d="M266.4,155.9h-70.9c-1,16.7-1.4,41.6,4.5,52.1c0.7,1.2,1.3,2.6,1.8,4L266.4,155.9z"/>
	<path class="st2" d="M272.8,150.3l-6.4,5.6h6.8C273.1,153.9,272.9,152,272.8,150.3"/>
	<path class="st3" d="M271.8,139.3h-74.9c0,0-0.8,7-1.4,16.6h70.9l6.4-5.6C272.3,143.7,271.8,139.3,271.8,139.3"/>
	<path class="st6" d="M205.4,242.8c-0.3,8.3-0.9,14.2-0.9,14.2s3.2,5.9,29.8,5.9s29.8-5.9,29.8-5.9s-0.6-5.9-0.9-14.1   c-3.5,1.8-12.8,4.8-28.9,4.8C216.5,247.6,208.5,244.6,205.4,242.8"/>
	<path class="st7" d="M195.4,142.5c-1,16.7-1.4,41.6,4.5,52.1c5.9,10.6,6.1,33.3,5.5,48.2c3,1.8,11.1,4.8,28.9,4.8   c16.1,0,25.3-3,28.9-4.8c-0.6-14.9-0.4-37.6,5.5-48.2c5.9-10.5,5.5-35.3,4.5-52.1H195.4z"/>
	<path class="st6" d="M271.8,126h-74.9c0,0-0.8,7-1.4,16.6h77.8C272.6,132.9,271.8,126,271.8,126"/>
	<path class="st3" d="M327.9,102.5H142.7v55.9h5.6v-50.1h172.8L327.9,102.5z M151.2,230c-1.5,0.1-3,0.1-4.5,0.1h-1.3   c1.8,7,4.8,15.2,9.7,22.3l4.2-3.8l-2.9-5.1C154,239.1,152.4,234.4,151.2,230"/>
	<path class="st1" d="M150.5,205c2-2.3,3-5.8,3-10.7c0-9.4-3.9-14.1-11.7-14.1h-5.7v28.2h5.7C145.6,208.4,148.5,207.3,150.5,205"/>
	<path class="st3" d="M151.2,158.4h-2.9v23.3c3.4,2.1,5.2,6.3,5.2,12.5c0,4.9-1,8.4-3,10.7c-0.6,0.7-1.3,1.3-2.2,1.8v6.2   c0,0.9,0.5,8.2,2.8,17c10.2-0.7,18.2-3.6,23.8-8.9c6.4-6,9.7-15,9.7-27c0-5.1-0.6-9.8-1.9-14.1c-1.3-4.3-3.3-8.1-6.1-11.3   s-6.3-5.7-10.5-7.5C161.9,159.3,157,158.4,151.2,158.4"/>
	<path class="st2" d="M142.7,158.4h-17.3v54.8c0,0,0,17.8,10.7,40.3v-23.3h9.3c-2.4-9.5-2.7-17-2.7-17v-4.7c-0.3,0-0.6,0-0.9,0h-5.7   v-28.2h5.7c0.3,0,0.6,0,0.9,0V158.4z"/>
	<path class="st5" d="M148.3,158.4h-5.6v21.8c2.2,0.1,4.1,0.6,5.6,1.6V158.4z M148.3,206.8c-1.6,0.9-3.4,1.5-5.6,1.6v4.7   c0,0,0.3,7.5,2.7,17h1.3c1.5,0,3.1,0,4.5-0.1c-2.4-8.8-2.8-16.2-2.8-17L148.3,206.8L148.3,206.8z"/>
	<path class="st3" d="M136.1,180.2L136.1,180.2v28.2h5.7c0.3,0,0.6,0,0.9,0c2.2-0.1,4.1-0.6,5.6-1.6c0.8-0.5,1.5-1.1,2.2-1.8   c2-2.3,3-5.8,3-10.7c0,4.9-1,8.4-3,10.7s-4.9,3.4-8.7,3.4h-5.7V180.2z"/>
	<path class="st1" d="M326.8,200.4c1.6-2.3,2.4-5.1,2.4-8.2c0-3.2-0.8-6.1-2.4-8.4c-1.6-2.4-4-3.6-7.1-3.6h-7.3v23.7h7.3   C322.8,203.9,325.2,202.7,326.8,200.4"/>
	<path class="st1" d="M341.3,213.6c1.4,0.1,2.7,0.3,3.9,0.6c0-0.6,0-1,0-1v-1.1c-1.2,0.5-2.5,0.9-3.9,1.1V213.6z"/>
	<path class="st1" d="M320.8,224.3h-8.4v28.2h8.4c2.8,0,5.3-1.2,7.5-3.5s3.2-5.9,3.2-10.8c0-4.5-1.1-8-3.2-10.4   C326.1,225.5,323.6,224.3,320.8,224.3"/>
	<path class="st2" d="M323.2,158.4h-41v37.7L323.2,158.4z M327.9,158.4v27.2c0.9,1.9,1.3,4.1,1.3,6.5c0,2.3-0.4,4.4-1.3,6.3v14.9   c0,0.4-0.2,5.2-1.9,12.6c0.8,0.5,1.5,1.2,2.3,2c2.2,2.4,3.2,5.8,3.2,10.4c0,4.9-1.1,8.5-3.2,10.8c-2.2,2.3-4.7,3.5-7.5,3.5h-5.2   c0,0,0,0.1-0.1,0.1c-4.4,7.8-9.7,15-16,21.6h22.3c20.8-27.9,23-54.7,23.3-60.1c-1.2-0.3-2.5-0.5-3.9-0.6v-0.3   c1.4-0.3,2.7-0.7,3.9-1.1v-50.4C340.6,159.5,334.9,158.4,327.9,158.4"/>
	<path class="st3" d="M327.8,158.4H326l-3.9,8.8l-40,36.7v70.4h17.4c6.2-6.6,11.6-13.8,16-21.6c0,0,0-0.1,0.1-0.1h-3.2v-28.2h8.4   c1.9,0,3.6,0.5,5.2,1.6c1.7-7.3,1.9-12.1,1.9-12.6v-14.9c-0.3,0.7-0.7,1.3-1.1,1.9c-1.6,2.3-4,3.5-7.1,3.5h-7.3v-23.7h7.3   c3.1,0,5.5,1.2,7.1,3.6c0.4,0.6,0.8,1.3,1.1,1.9v-27.2C327.9,158.4,327.8,158.4,327.8,158.4"/>
	<polygon class="st4" points="323.2,158.4 323.2,158.4 282.2,196.1 282.2,196.1  "/>
	<polygon class="st5" points="326,158.4 323.2,158.4 282.2,196.1 282.2,203.9 322.2,167.2  "/>
	<path class="st3" d="M312.4,180.2L312.4,180.2v23.7h7.3c3.1,0,5.5-1.2,7.1-3.5c0.4-0.6,0.8-1.2,1.1-1.9c0.9-1.9,1.3-4,1.3-6.3   c0,3.1-0.8,5.9-2.4,8.2s-4,3.5-7.1,3.5h-7.3V180.2z"/>
	<path class="st3" d="M312.4,224.3L312.4,224.3v28.2h3.2h5.2c2.8,0,5.3-1.2,7.5-3.5s3.2-5.9,3.2-10.8c0,4.9-1.1,8.5-3.2,10.8   c-2.2,2.3-4.7,3.5-7.5,3.5h-8.4L312.4,224.3L312.4,224.3z"/>
	<path class="st8" d="M345.3,80.1H125.5c-2.8,0-5.1,2.3-5.1,5.1v38.2H90.5c-2.8,0-5.1,2.3-5.1,5.1v129.7c0,2.8,2.3,5.1,5.1,5.1h33.8   c2.8,0,5.1-2.3,5.1-5.1v-7.5c1.4,3.4,3,6.7,4.7,9.9c8.1,15.3,19.4,29,33.4,40.6c17.5,14.5,39.4,25.9,65.1,33.9   c0.5,0.2,1,0.2,1.5,0.2h2.5c0.5,0,1-0.1,1.5-0.2c25.7-8,47.6-19.4,65.1-33.9c13.2-11,24-23.7,32-37.9h7.5c7.6,0,14.3-1.1,19.8-3.1   c5.7-2.2,10.4-5.3,14-9.2s6.2-8.7,7.9-14.1c1.6-5.2,2.4-10.9,2.4-16.9c0-3.8-0.5-7.7-1.5-11.4c-1.1-3.9-2.7-7.5-5-10.7   c-2.3-3.3-5.3-6.2-8.9-8.4h-0.1c2.5-2,4.6-4.4,6.3-7.1c1.9-3,3.3-6.5,4.3-10.2c0.9-3.6,1.3-7.3,1.3-11.1c0-11.1-3.4-20.3-10.1-27.1   c-5.4-5.5-13-8.8-22.7-9.9V85.2C350.4,82.4,348.1,80.1,345.3,80.1 M345.3,85.2v43.4c10.8,0.4,18.8,3.3,24.2,8.8   c5.8,5.9,8.6,13.7,8.6,23.5c0,3.4-0.4,6.7-1.2,9.9c-0.8,3.2-2,6.1-3.6,8.7c-1.6,2.6-3.7,4.8-6.3,6.6c-2.5,1.8-5.6,3.1-9.3,3.8v0.4   c4.2,0.4,7.9,1.5,10.9,3.4s5.5,4.2,7.4,7s3.4,5.8,4.3,9.2c0.9,3.3,1.4,6.7,1.4,10.1c0,5.6-0.7,10.7-2.2,15.4s-3.7,8.8-6.8,12.2   c-3.1,3.4-7.1,6-12.1,7.9c-5,1.9-11,2.8-18,2.8h-10.5c-13.4,25.2-40.6,55-95.5,72.1h-2.5c-54.9-17.1-82.1-46.8-95.5-72.1   c-4.2-8-7.1-15.5-9.1-22l-5.3,0.2v21.8H90.5V128.5h35V85.2H345.3z"/>
	<path class="st6" d="M130.6,181.9c3.5,0,6.1-1,7.8-3c1.8-2.1,2.7-5.5,2.7-10.3c0-11.8-5.6-13.3-10.5-13.3h-3.8v26.5h3.8V181.9z    M90.4,260.8c-1.4,0-2.5-1.1-2.5-2.5V128.5c0-1.4,1.1-2.5,2.5-2.5h50.7c6.7,0,12.7,1.1,17.7,3.3c5.1,2.2,9.3,5.3,12.6,9.1   s5.8,8.4,7.3,13.6c1.5,5.1,2.3,10.6,2.3,16.5c0,14.1-3.9,24.9-11.6,32.1c-7.7,7.1-18.9,10.8-33.4,10.8h-9.3v46.9   c0,1.4-1.1,2.5-2.5,2.5L90.4,260.8L90.4,260.8z"/>
	<path class="st8" d="M129.3,158h1.3c3.9,0,8,0.8,8,10.7c0,4.1-0.7,7.1-2.1,8.6c-0.5,0.5-1.8,2.1-5.9,2.1h-1.3V158z M141.1,123.4   H90.4c-2.8,0-5.1,2.3-5.1,5.1v129.7c0,2.8,2.3,5.1,5.1,5.1h33.8c2.8,0,5.1-2.3,5.1-5.1v-44.3h6.7c15.2,0,27-3.9,35.2-11.4   c8.2-7.7,12.4-19.1,12.4-34c0-6.2-0.8-12-2.4-17.3c-1.7-5.5-4.3-10.4-7.8-14.5c-3.6-4.1-8.1-7.4-13.5-9.8   C154.5,124.6,148.2,123.4,141.1,123.4 M124.2,184.5h6.4c4.2,0,7.5-1.3,9.7-3.8s3.4-6.5,3.4-12c0-10.5-4.4-15.8-13.1-15.8h-6.4   L124.2,184.5L124.2,184.5z M141.1,128.5c6.4,0,12,1,16.7,3.1s8.6,4.9,11.7,8.4c3.1,3.6,5.4,7.8,6.8,12.6c1.5,4.8,2.2,10.1,2.2,15.8   c0,13.4-3.6,23.5-10.8,30.3c-7.2,6.7-17.8,10.1-31.7,10.1h-11.8v49.4H90.4V128.5H141.1z"/>
	<path class="st6" d="M333.5,176.6c2.7,0,4.6-0.9,5.9-2.8c1.5-2.2,2.3-4.7,2.3-7.7c0-3.1-0.7-5.8-2.3-8c-1.3-2-3.2-2.9-5.9-2.9h-5.6   v21.4H333.5z M334.8,231.1c2.4,0,4.6-1,6.5-3.1c2-2.1,3-5.6,3-10.3c0-4.4-1-7.7-3-9.9c-1.9-2.1-4.1-3.2-6.5-3.2h-6.9v26.5H334.8z    M291.6,260.5c-1.4,0-2.5-1.1-2.5-2.5V128.2c0-1.4,1.1-2.5,2.5-2.5h51.1c12.8,0,22.4,3.2,28.6,9.6c6.2,6.3,9.4,14.9,9.4,25.3   c0,3.6-0.4,7.1-1.3,10.5c-0.9,3.5-2.2,6.6-3.9,9.5c-1.8,2.9-4.1,5.3-6.9,7.3c-0.7,0.5-1.5,1-2.3,1.4c1.3,0.5,2.6,1.2,3.8,1.9   c3.3,2.1,6.1,4.7,8.2,7.7s3.7,6.4,4.6,10c1,3.5,1.5,7.2,1.5,10.8c0,5.8-0.8,11.2-2.3,16.2c-1.6,5.1-4,9.5-7.4,13.1   c-3.3,3.7-7.7,6.6-13.1,8.6c-5.2,2-11.6,3-18.9,3h-51.1V260.5z"/>
	<path class="st8" d="M330.4,207.1h4.4c1.1,0,2.7,0.2,4.6,2.3c1.5,1.7,2.3,4.4,2.3,8.2c0,4-0.8,7-2.3,8.6c-1.9,2-3.6,2.3-4.6,2.3   h-4.4V207.1z M330.4,157.7h3.1c2.3,0,3.2,0.9,3.8,1.8c1.2,1.8,1.8,4,1.8,6.6c0,2.5-0.6,4.5-1.8,6.3c-0.6,0.9-1.5,1.7-3.8,1.7h-3.1   V157.7z M342.6,123.2h-51.1c-2.8,0-5.1,2.3-5.1,5.1V258c0,2.8,2.3,5.1,5.1,5.1h51.1c7.6,0,14.3-1.1,19.8-3.1   c5.7-2.2,10.4-5.3,14-9.2s6.2-8.7,7.9-14.1c1.6-5.2,2.4-10.9,2.4-16.9c0-3.8-0.5-7.7-1.5-11.4c-1.1-3.9-2.7-7.5-5-10.7   c-2.3-3.3-5.3-6.2-8.9-8.4c0,0-0.1,0-0.1-0.1c2.5-2,4.6-4.4,6.3-7.1c1.9-3.1,3.3-6.5,4.3-10.2c0.9-3.6,1.3-7.3,1.3-11.1   c0-11.1-3.4-20.3-10.1-27.1C366.3,126.6,356.1,123.2,342.6,123.2 M325.3,233.6h9.4c3.1,0,5.9-1.3,8.4-3.9c2.4-2.6,3.6-6.6,3.6-12.1   c0-5.1-1.2-9-3.6-11.6c-2.4-2.7-5.2-4-8.4-4h-9.4V233.6z M325.3,179.1h8.2c3.5,0,6.2-1.3,8-3.9c1.8-2.6,2.7-5.7,2.7-9.2   c0-3.6-0.9-6.8-2.7-9.4c-1.8-2.7-4.5-4-8-4h-8.2V179.1z M342.6,128.2c12.1,0,21,2.9,26.8,8.8c5.8,5.9,8.6,13.7,8.6,23.5   c0,3.4-0.4,6.7-1.2,9.9c-0.8,3.2-2,6.1-3.6,8.7c-1.6,2.6-3.7,4.8-6.3,6.6c-2.5,1.8-5.6,3.1-9.3,3.8v0.4c4.2,0.4,7.9,1.5,10.9,3.4   s5.5,4.2,7.4,7s3.4,5.8,4.3,9.2c0.9,3.3,1.4,6.7,1.4,10.1c0,5.6-0.7,10.7-2.2,15.4s-3.7,8.8-6.8,12.2c-3.1,3.4-7.1,6-12.1,7.9   s-11,2.8-18,2.8h-51.1V128.2H342.6z"/>
	<path class="st8" d="M264.1,257l2.5-0.3l0,0c-0.1-0.6-1.1-11.7-1.1-24.7c0-6.7,0.3-13.9,1.1-20.3c0.4-3.2,1-6.3,1.7-9   s1.6-5,2.6-6.8c1.1-2,2-4.4,2.7-7c1-3.9,1.7-8.4,2.1-13.3c0.4-4.8,0.6-9.9,0.6-14.9c0-8.9-0.5-17.7-1-24.2s-1-10.8-1-10.8   c-0.2-1.3-1.2-2.2-2.5-2.2h-74.9c-1.3,0-2.4,1-2.5,2.2c0,0-0.5,4.3-1,10.8s-1,15.2-1,24.2c0,6.7,0.3,13.5,1.1,19.6   c0.4,3.1,0.9,5.9,1.6,8.6c0.7,2.6,1.6,5,2.7,7c1,1.8,1.9,4.1,2.6,6.8c1.1,4,1.8,8.9,2.2,13.9c0.4,5.1,0.6,10.4,0.6,15.4   c0,6.7-0.3,12.9-0.6,17.4c-0.1,2.3-0.3,4.1-0.4,5.4c-0.1,0.6-0.1,1.1-0.1,1.5c0,0.2,0,0.3,0,0.4v0.1l0,0c-0.1,0.5,0.1,1,0.3,1.5   c0.2,0.3,0.6,1,1.6,1.7c1.5,1.1,4,2.5,8.7,3.6s11.6,1.9,21.7,1.9c6.7,0,12-0.4,16.2-0.9c6.3-0.9,10-2.1,12.3-3.4   c1.2-0.6,2-1.2,2.5-1.7s0.8-0.9,1-1.2c0.3-0.5,0.4-1,0.3-1.5L264.1,257l-2.2-1.2l1.6,0.9l-1.5-1c0,0-0.1,0.1-0.1,0.2l1.6,0.9   l-1.5-1l0.6,0.4l-0.6-0.4l0,0l0.6,0.4l-0.6-0.4l0,0c0,0-0.3,0.3-1.1,0.8c-1.2,0.7-3.5,1.7-7.7,2.5s-10.3,1.4-18.9,1.4   c-6.5,0-11.6-0.4-15.5-0.9c-5.8-0.8-9.1-2-10.7-2.8c-0.8-0.4-1.2-0.8-1.4-0.9l-0.1-0.1l0,0l-1,0.8l1.1-0.6   c-0.1-0.1-0.1-0.2-0.1-0.2l-1,0.8l1.1-0.6l-2.2,1.2l2.5,0.3c0-0.1,1.2-11.6,1.2-25.3c0-6.8-0.3-14.2-1.2-21c-0.4-3.4-1-6.6-1.8-9.6   s-1.8-5.7-3.1-8c-0.8-1.5-1.6-3.5-2.2-5.8c-0.9-3.5-1.6-7.8-2-12.4c-0.4-4.6-0.6-9.6-0.6-14.5c0-8.7,0.5-17.4,1-23.8   c0.2-3.2,0.5-5.9,0.7-7.7c0.1-0.9,0.2-1.7,0.2-2.1c0-0.2,0-0.4,0.1-0.6c0-0.1,0-0.1,0-0.1l0,0l-2.5-0.3v2.5h74.9V126l-2.5,0.3l0,0   c0.1,0.5,0.6,4.8,1,11.2s0.9,14.7,0.9,23.2c0,6.6-0.3,13.2-1,19c-0.4,2.9-0.9,5.6-1.5,7.9c-0.6,2.3-1.4,4.3-2.2,5.8   c-1.3,2.3-2.3,5-3.1,8c-1.2,4.5-1.9,9.5-2.4,14.8s-0.6,10.7-0.6,15.8c0,13.7,1.2,25.2,1.2,25.3L264.1,257l-2.2-1.2L264.1,257z"/>
	<path class="st8" d="M203.9,244.7c1.5,1.1,4,2.5,8.7,3.6s11.6,1.9,21.7,1.9c8.4,0,14.6-0.6,19.1-1.4c4.5-0.8,7.5-1.9,9.4-2.9   c1.2-0.7,1.7-2.2,1.1-3.4s-2.2-1.7-3.4-1.1c-1.3,0.7-3.8,1.6-8,2.4c-4.2,0.8-10,1.3-18.2,1.3c-9.8,0-16.3-0.8-20.5-1.8   s-6.1-2.1-6.8-2.6c-1.1-0.9-2.7-0.6-3.6,0.5C202.6,242.2,202.8,243.8,203.9,244.7z"/>
	<path class="st8" d="M249.6,143L249.6,143c0,0.1,1.6,8,1.6,19.3c0,5.8-0.4,12.4-1.6,19.4c-0.2,1.4,0.7,2.7,2.1,2.9   c1.4,0.2,2.7-0.7,2.9-2.1c1.2-7.3,1.6-14.3,1.6-20.2c0-12-1.6-20.2-1.7-20.3c-0.3-1.4-1.6-2.3-3-2   C250.2,140.3,249.3,141.6,249.6,143z"/>
	<path class="st8" d="M245.5,196.3c0,0-0.6,2.2-1.2,5.1c-0.3,1.5-0.6,3.2-0.8,4.9s-0.4,3.5-0.4,5.3c0,1.4,1.1,2.5,2.5,2.6   c1.4,0,2.5-1.1,2.5-2.5s0.1-3,0.3-4.6c0.3-2.4,0.8-4.7,1.2-6.5c0.2-0.9,0.4-1.6,0.5-2.1c0.1-0.2,0.1-0.4,0.1-0.6c0-0.1,0-0.1,0-0.1   l0,0l0,0c0.4-1.4-0.4-2.8-1.8-3.1C247.3,194.1,245.9,194.9,245.5,196.3z"/>
	<path class="st6" d="M213.8,168.1L213.8,168.1c-2,0-3.6-1.6-3.6-3.6v-29.9c0-2,1.6-3.6,3.6-3.6s3.6,1.6,3.6,3.6v29.9   C217.4,166.5,215.8,168.1,213.8,168.1"/>
	<path class="st6" d="M226,195.1L226,195.1c-2,0-3.6-1.6-3.6-3.6v-56.9c0-2,1.6-3.6,3.6-3.6s3.6,1.6,3.6,3.6v56.9   C229.6,193.5,228,195.1,226,195.1"/>
	<path class="st6" d="M226,208.7L226,208.7c-2,0-3.6-1.6-3.6-3.6s1.6-3.6,3.6-3.6s3.6,1.6,3.6,3.6C229.6,207.1,228,208.7,226,208.7"/>
</g>
</svg>