<svg xmlns="http://www.w3.org/2000/svg" viewBox="0 0 378 300"><defs><style>.cls-1{fill:none;}.cls-2{fill:#fff;}</style></defs><g id="Bounding_box" data-name="Bounding box"><rect class="cls-1" width="378" height="300"/></g><g id="Beeldmerk"><path class="cls-2" d="M279.81,75.53a34,34,0,0,1-34,34H234.48a56.57,56.57,0,0,0-45.34,22.67,56.55,56.55,0,0,0-45.33-22.67H132.48a34,34,0,0,1-34-34H75.81a56.67,56.67,0,0,0,56.67,56.67h11.33a34,34,0,0,1,34,34h22.67a34,34,0,0,1,34-34h11.33a56.67,56.67,0,0,0,56.66-56.67Z"/><polygon class="cls-2" points="189.14 245.53 206.14 188.87 172.14 188.87 189.14 245.53"/><circle class="cls-2" cx="121.42" cy="188.86" r="22.67"/><circle class="cls-2" cx="256.87" cy="188.86" r="22.67" transform="translate(-8.29 11.83) rotate(-2.6)"/></g></svg>