<?xml version="1.0" encoding="utf-8"?>
<!-- Generator: Adobe Illustrator 27.8.0, SVG Export Plug-In . SVG Version: 6.00 Build 0)  -->
<svg version="1.1" id="Layer_1" xmlns="http://www.w3.org/2000/svg" xmlns:xlink="http://www.w3.org/1999/xlink" x="0px" y="0px"
	 viewBox="0 0 1466 300" style="enable-background:new 0 0 1466 300;" xml:space="preserve">
<style type="text/css">
	.st0{fill:#FFFFFF;}
</style>
<path class="st0" d="M421.9,96c-1.5-6.2-6.2-9.7-13-9.7c-10.6,0-16.6,7.8-16.6,21.2s6,21.3,16.2,21.3c7.4,0,11.8-3.7,13.6-11.3h15.3
	c-1.7,14.5-12.6,23.6-28.5,23.6c-18.9,0-31-13.1-31-33.6s11.9-33.4,31-33.4c15.5,0,26,8.3,27.8,21.9L421.9,96z"/>
<path class="st0" d="M459.7,97.2c3.8-3.6,7.5-5.2,12.3-5.2c4.5-0.1,8.8,1.7,11.9,5c3,3.3,4.1,7.2,4.1,14.1v28.5h-13.6v-26
	c0-4.3-0.4-6.1-1.5-7.7c-1.3-1.6-3.3-2.5-5.4-2.4c-2.2,0-4.4,0.8-6,2.3c-1.5,1.6-1.8,3-1.8,7.8v26H446V75.6h13.7V97.2z"/>
<path class="st0" d="M513.4,93.3l-0.4,8.3c2.7-7.5,6.2-9.6,16-9.5v12.9c-1.1-0.1-2.3-0.2-3.5-0.2c-4.7,0-8.5,2.1-10.1,5.6
	c-1.3,3.1-1.8,7.4-1.8,16.3v13.1h-13.6V93.3H513.4z"/>
<path class="st0" d="M550.2,139.7h-13.6V93.3h13.7L550.2,139.7z"/>
<path class="st0" d="M587.5,107.2c-0.6-3.5-3.4-5.3-7.9-5.3c-3.9,0-6.5,1.5-6.5,3.8c0,1.7,1.3,2.6,5.7,3.6l8.6,1.8
	c5.7,1.2,8.6,2.4,10.6,4.5c2.2,2.1,3.5,5.6,3.5,9.3c0,9.8-8,16-20.9,16s-20.8-6.1-21.6-16.3h12.8c0.8,4.4,3.7,6.5,9.1,6.5
	c4.3,0,7.1-1.7,7.1-4.5c0-2.2-1.5-3.4-5.2-4.2l-8.5-1.9c-10.2-2.2-14.1-6-14.1-13.4c0-9.3,7.4-15,19.8-15c11.9,0,19.1,5.4,20.4,15.2
	L587.5,107.2z"/>
<path class="st0" d="M634.5,103.4h-8.4v18.1c0,7.3,0.3,7.9,3.5,7.9h4.9v10.3h-8.4c-6,0-8.9-0.9-11-3.1s-2.7-4.8-2.7-12v-21.2H606
	v-9.6h6.5V79.1h13.7v14.7h8.4V103.4z"/>
<path class="st0" d="M657.4,139.7h-13.6V93.3h13.7L657.4,139.7z"/>
<path class="st0" d="M669.5,107.9C670.4,97.2,677,92,690.1,92c7,0,12.4,1.6,16.1,4.8c3.4,3,4.6,6.7,4.6,13.6v21.3c0,5,0.2,5.7,1.7,8
	h-13.9c-0.6-1.6-0.6-1.9-1.1-3.6c-4.5,3.8-7.8,4.9-13.3,4.9c-10.3,0-17.1-5.8-17.1-14.5s5.5-13.3,18.5-15.4l7.4-1.2
	c3.1-0.5,4.1-1.2,4.1-3.2c0-2.6-2.7-4.2-7.1-4.2c-5,0-7.7,1.7-8.3,5.5L669.5,107.9z M697.5,117.6c-1.6,0.6-3.3,1.1-5,1.4l-4.9,1.1
	c-4.9,1.2-7,2.8-7,5.6c0,3.1,2.6,4.9,6.9,4.9c4.2,0.2,8.1-2.1,10-5.9L697.5,117.6z"/>
<path class="st0" d="M723,107.9c0.8-10.7,7.5-15.9,20.6-15.9c7,0,12.4,1.6,16,4.8c3.4,3,4.6,6.7,4.6,13.6v21.3c0,5,0.2,5.7,1.7,8
	h-14c-0.6-1.6-0.6-1.9-1.1-3.6c-4.5,3.8-7.8,4.9-13.3,4.9c-10.3,0-17.1-5.8-17.1-14.5s5.5-13.3,18.4-15.4l7.4-1.2
	c3.1-0.5,4.1-1.2,4.1-3.2c0-2.6-2.7-4.2-7.1-4.2c-5,0-7.7,1.7-8.3,5.5L723,107.9z M751,117.6c-1.6,0.6-3.3,1.1-5,1.4l-4.9,1.1
	c-4.9,1.2-7,2.8-7,5.6c0,3.1,2.6,4.9,6.9,4.9c4.2,0.2,8.1-2.1,10-5.9L751,117.6z"/>
<path class="st0" d="M789.6,93.3v4.5c5-4.6,7.9-5.9,12.7-5.9c10.1,0,16.2,6.7,16.2,17.7v30.1h-13.6v-25.3c0-4.7-0.3-6.5-1.5-8.3
	c-1.3-1.8-3.4-2.8-5.6-2.7c-2.2,0-4.4,0.9-5.9,2.6c-1.5,1.7-2,3.7-2,7.7v26.1h-13.7V93.3H789.6z"/>
<path class="st0" d="M395.2,196.8v27.7h-14.4v-64.1h14.4v24.1h23.5v-24.1h14.4v64.1h-14.4v-27.7H395.2z"/>
<path class="st0" d="M488,224.5h-13v-5.1c-3.3,4.6-6.6,6.4-12.3,6.4c-4.6,0.1-9-1.6-12.3-4.8c-3.2-3.2-4.4-7.1-4.4-13.8V178h13.6
	v26.1c0,4.5,0.2,5.7,1.4,7.3c1.4,1.8,3.7,2.8,6,2.7c2.3,0.1,4.5-0.9,5.9-2.7c1.2-1.6,1.5-2.7,1.5-7.3V178H488V224.5z"/>
<path class="st0" d="M541.7,178l-16.2,46.8c-2.6,7.6-4.1,10.3-6.5,12c-2.2,1.6-5.3,2.3-10.4,2.3h-8v-10.2h4c4.8,0,7-1.8,7-5.9
	c0-1.6-0.1-1.9-1.7-6l-15.3-39h14.6l6.8,21.2c1.3,4.3,1.3,4.4,2.4,8.3l0.6,1.8c0.6-3.1,1.3-6.2,2.4-10.4l6-21L541.7,178z"/>
<path class="st0" d="M591.5,178.3v41.7c0,7.6-1.1,10.9-4.3,14.1c-4.2,4.1-10.6,6.2-18.5,6.2c-13,0-20.8-5.3-21.7-14.8H561
	c1,2.9,3.7,4.3,8.2,4.3c2.3,0.1,4.6-0.5,6.4-1.8c2-1.6,2.6-3.4,2.6-8.1V217c-4.1,3.8-7.3,5-12.5,5c-12.2,0-21-9.3-21-22.4
	s8.8-22.8,20.6-22.8c6,0,10.4,2.3,13.5,7.2l-0.3-5.7L591.5,178.3z M557.7,199.3c0,6.8,4.1,11.5,10.3,11.5c6.3,0,10.3-4.5,10.3-11.7
	c0-6.8-4.1-11.3-10.3-11.3S557.7,192.5,557.7,199.3L557.7,199.3z"/>
<path class="st0" d="M615.3,205.2c0.9,6.4,4.6,9.8,10.5,9.8c3.7,0,6.2-1.2,8.1-4.1h13.8c-2.6,9-11.2,14.8-22.3,14.8
	c-14.3,0-23.8-9.8-23.8-24.4s9.7-24.5,23.7-24.5c9.8,0,17.2,4.9,20.7,13.6c1.6,4,2.3,8.4,2.3,14.8H615.3z M634.2,195.6
	c-0.6-5.5-3.8-8.5-9-8.5s-8.7,3-9.8,8.5H634.2z"/>
<path class="st0" d="M671.3,178v4.5c5-4.6,7.9-5.9,12.7-5.9c10.1,0,16.2,6.7,16.2,17.7v30.1h-13.7v-25.3c0-4.7-0.3-6.5-1.4-8.3
	c-1.3-1.8-3.4-2.8-5.6-2.7c-2.2-0.1-4.4,0.9-5.9,2.5c-1.5,1.7-2,3.6-2,7.7v26.1h-13.7V178H671.3z"/>
<path class="st0" d="M737.6,192c-0.6-3.5-3.4-5.3-7.9-5.3c-3.9,0-6.5,1.5-6.5,3.8c0,1.7,1.3,2.6,5.7,3.6l8.5,1.8
	c5.7,1.1,8.6,2.4,10.6,4.5c2.2,2.1,3.5,5.6,3.5,9.3c0,9.8-8,16-20.9,16s-20.9-6.1-21.6-16.3h12.8c0.8,4.4,3.7,6.4,9.1,6.4
	c4.3,0,7.1-1.7,7.1-4.5c0-2.2-1.5-3.4-5.2-4.2l-8.5-1.9c-10.2-2.2-14.1-6-14.1-13.4c0-9.3,7.4-15,19.8-15c11.9,0,19.1,5.4,20.4,15.2
	L737.6,192z"/>
<path class="st0" d="M986.2,114.6l-3.1,9.1h-4.6l11.2-30.5h4.7l11.2,30.5h-4.8l-3.2-9.1H986.2z M992,97.9l-4.5,13h9L992,97.9z"/>
<path class="st0" d="M1013.3,101.4v2.4c1.7-1.9,4.2-2.9,6.7-2.9c5.9,0,9.8,4.7,9.8,11.8c0,7-3.7,11.5-9.4,11.5
	c-2.7,0.1-5.3-1-7.1-3.1v9.5h-4.2v-29.3H1013.3z M1013.1,112.5c0,5.3,2.2,8.3,6.3,8.3s6.2-2.9,6.2-8.1s-2.2-8.1-6.2-8.1
	S1013.1,107.4,1013.1,112.5L1013.1,112.5z"/>
<path class="st0" d="M1039,101.4v2.4c1.7-1.9,4.2-2.9,6.7-2.9c5.9,0,9.8,4.7,9.8,11.8c0,7-3.7,11.5-9.4,11.5c-2.7,0.1-5.3-1-7.1-3.1
	v9.5h-4.2v-29.2H1039z M1038.8,112.5c0,5.3,2.2,8.3,6.3,8.3s6.2-2.9,6.2-8.1s-2.2-8.1-6.2-8.1S1038.7,107.4,1038.8,112.5
	L1038.8,112.5z"/>
<path class="st0" d="M1064.6,123.7h-4.2V93.2h4.2V123.7z"/>
<path class="st0" d="M1075,98.1h-4.2v-4.9h4.2V98.1z M1075,123.7h-4.2v-22.1h4.2V123.7z"/>
<path class="st0" d="M1084.2,113.7c0.3,4.5,2.6,7.1,6.4,7.1c2.5,0.1,4.7-1.5,5.3-3.8h4c-1,4.6-4.6,7.4-9.4,7.4
	c-6.2,0-10.5-4.8-10.5-11.7s4.2-11.6,10.4-11.6c4.2-0.2,7.9,2.6,9.1,6.6c0.6,2,0.9,4,0.9,6.1L1084.2,113.7z M1095.9,110.6
	c-0.2-4-2.2-6.3-5.5-6.3s-5.9,2.6-6.1,6.3H1095.9z"/>
<path class="st0" d="M1124.9,123.7h-4.2v-2.4c-1.8,2-4.3,3.1-7,3c-5.9,0-9.6-4.6-9.6-11.7s3.8-11.5,9.6-11.5c2.7-0.1,5.2,1,7,3V93.2
	h4.2V123.7z M1108.4,112.6c0,5.2,2.3,8.1,6.3,8.1s6.3-2.9,6.3-8c0-5.3-2.2-8.2-6.3-8.2S1108.4,107.5,1108.4,112.6z"/>
<path class="st0" d="M1158.3,123.7l-7.1-18.3c-0.8-2.3-1.5-4.3-2.1-6.3c0.1,2.3,0.2,4.8,0.2,6.7v17.9h-4.1V93.2h5.3l7.6,19.5
	c1,2.7,1.1,3,1.8,5.4c0.9-2.7,1.3-3.7,1.8-5.3l7.5-19.5h5.3v30.3h-4.1v-17.9c0-2.1,0.1-4.3,0.2-6.7c-0.7,2.5-1.3,4.2-2.2,6.7
	l-6.9,17.9H1158.3z"/>
<path class="st0" d="M1181.4,108.9c0.2-2.6,0.7-4.2,1.8-5.4c1.4-1.6,4.1-2.5,7.2-2.5c5.5,0,8.6,2.6,8.6,7.2v10.4
	c0,1.7,0.2,2.1,1.2,2.1c0.4,0,0.8-0.1,1.1-0.2v3.2c-0.9,0.2-1.8,0.3-2.7,0.3c-2,0-2.9-0.9-3.3-3c-2,2.1-4.7,3.3-7.6,3.2
	c-4.3,0-7.2-2.7-7.2-6.5c0-3.6,2.2-5.8,6.7-6.7l4.9-1c2.7-0.5,3.2-0.9,3.2-2.3c0-2.2-1.9-3.5-4.8-3.5c-2.2,0-3.8,0.7-4.4,1.9
	c-0.4,0.8-0.6,1.8-0.5,2.7L1181.4,108.9z M1195.2,112.4c-0.8,0.3-1.7,0.6-2.6,0.8l-4.3,1c-2.6,0.6-3.7,1.7-3.7,3.4
	c0,2,1.7,3.4,4.1,3.4c3.6,0,6.5-2.6,6.5-5.8V112.4z"/>
<path class="st0" d="M1214,105h-4v13.8c0,1.3,0.6,2,1.7,2c0.8,0,1.6-0.2,2.3-0.6v3.4c-1.1,0.3-2.3,0.5-3.5,0.5
	c-3.2,0-4.7-1.7-4.7-5.3V105h-3v-3.3h3v-7h4.2v7h4L1214,105z"/>
<path class="st0" d="M1222.3,103.6c1.7-1.7,4.1-2.7,6.6-2.6c2.4-0.1,4.6,0.8,6.2,2.6c1.1,1.3,1.5,2.8,1.5,5.3v14.8h-4.2v-14.1
	c0-1.9-0.2-2.8-0.9-3.6c-0.9-0.9-2.1-1.4-3.4-1.3c-3.7,0-5.8,2.2-5.8,5.9v13h-4.2V93.2h4.2L1222.3,103.6z"/>
<path class="st0" d="M1245.8,113.7c0.3,4.5,2.6,7.1,6.4,7.1c2.5,0.1,4.7-1.5,5.3-3.8h4c-1.1,4.6-4.6,7.4-9.5,7.4
	c-6.2,0-10.5-4.8-10.5-11.7s4.2-11.6,10.4-11.6c4.2-0.1,7.9,2.6,9,6.6c0.6,2,0.9,4,0.9,6.1L1245.8,113.7z M1257.5,110.6
	c-0.2-4-2.2-6.3-5.5-6.3s-5.9,2.6-6.1,6.3H1257.5z"/>
<path class="st0" d="M1270.9,101.6v2.8c1.7-2.5,3.2-3.4,6-3.4c2.9,0,4.7,1.1,5.7,3.7c1.7-2.7,3.6-3.7,6.7-3.7
	c2.1-0.1,4.1,0.7,5.4,2.3c1,1.2,1.4,2.8,1.4,5.4v15h-4.2V109c0-2.9-1.2-4.2-3.7-4.2c-2.9,0-4.7,2.1-4.7,5.5v13.5h-4.2v-15
	c0-2.5-1.3-3.9-3.7-3.9c-2.8,0-4.7,2.1-4.7,5.2v13.6h-4.2v-22.1H1270.9z"/>
<path class="st0" d="M1302.2,108.9c0.2-2.6,0.7-4.2,1.8-5.4c1.4-1.6,4.1-2.5,7.2-2.5c5.5,0,8.6,2.6,8.6,7.2v10.4
	c0,1.7,0.2,2.1,1.2,2.1c0.4,0,0.8-0.1,1.1-0.2v3.2c-0.9,0.2-1.8,0.3-2.7,0.3c-2,0-2.9-0.9-3.3-3c-2,2.1-4.7,3.3-7.6,3.2
	c-4.3,0-7.2-2.7-7.2-6.5c0-3.6,2.2-5.8,6.7-6.7l4.9-1c2.7-0.5,3.2-0.9,3.2-2.3c0-2.2-1.9-3.5-4.8-3.5c-2.1,0-3.8,0.7-4.4,1.9
	c-0.4,0.8-0.6,1.8-0.5,2.7L1302.2,108.9z M1316,112.4c-0.8,0.3-1.7,0.6-2.6,0.8l-4.3,1c-2.6,0.6-3.7,1.7-3.7,3.4
	c0,2,1.6,3.4,4.1,3.4c3.6,0,6.5-2.6,6.5-5.8V112.4z"/>
<path class="st0" d="M1334.9,105h-4v13.8c0,1.3,0.6,2,1.6,2c0.8,0,1.6-0.2,2.3-0.6v3.4c-1.1,0.3-2.3,0.5-3.5,0.5
	c-3.2,0-4.7-1.7-4.7-5.3V105h-3v-3.3h3v-7h4.2v7h4L1334.9,105z"/>
<path class="st0" d="M1343.1,98.1h-4.2v-4.9h4.2V98.1z M1343.1,123.7h-4.2v-22.1h4.2V123.7z"/>
<path class="st0" d="M1364.7,109.1c-0.3-2.8-2.8-4.8-5.6-4.6c-4,0-6.7,3.2-6.7,8s2.7,8.2,6.7,8.2c3.3,0,5.2-1.8,5.8-5.3h4
	c-0.6,5.6-4.2,8.9-9.9,8.9c-6.6,0-10.9-4.6-10.9-11.7s4.3-11.6,11-11.6c5.4,0,8.9,3,9.5,8.1L1364.7,109.1z"/>
<path class="st0" d="M1386.5,108.4c-0.6-2.7-2.1-3.9-5-3.9c-2.5,0-4.2,1.1-4.2,2.6c0,1.1,0.8,1.8,2.6,2.3l5.1,1.3
	c4.6,1.2,6.5,3.1,6.5,6.5c0,4.3-3.6,7.1-9.2,7.1c-6,0-9.6-2.9-10-8.2h4.2c0.2,2.9,2.4,4.7,5.9,4.7c3,0,5-1.3,5-3.4
	c0-1.5-1-2.2-3.5-2.9l-4.4-1.1c-1.7-0.3-3.3-1-4.7-2.1c-1.1-1-1.6-2.4-1.6-3.8c0-3.8,3.5-6.5,8.5-6.5c3.2,0,5.8,1,7.3,2.9
	c1,1.3,1.5,2.8,1.6,4.4L1386.5,108.4z"/>
<path class="st0" d="M1002.8,153.1c-0.7-3.9-4.2-6.6-8.2-6.4c-5.8,0-9.7,4.8-9.7,11.9c0,7.4,3.8,12.3,9.5,12.3c4.8,0,8-3.2,8.7-8.5
	h4.4c-0.2,2.6-1.1,5-2.6,7.1c-2.4,3.4-6.4,5.4-10.6,5.2c-4.2,0.2-8.2-1.8-10.7-5.2c-2.3-3.2-3.4-7-3.3-10.8
	c0-9.3,5.9-15.8,14.3-15.8c6.5,0,11.1,3.7,12.4,9.8L1002.8,153.1z"/>
<path class="st0" d="M1032.7,163.2c0,6.8-4.3,11.5-10.7,11.5s-10.6-4.7-10.6-11.7s4.3-11.6,10.6-11.6
	C1028.5,151.4,1032.7,156.1,1032.7,163.2z M1015.7,163c0,5.2,2.3,8.1,6.4,8.1c4.1,0,6.3-3,6.3-8c0-5.3-2.3-8.2-6.4-8.2
	S1015.7,157.9,1015.7,163L1015.7,163z"/>
<path class="st0" d="M1041.7,152v2.8c1.7-2.5,3.2-3.4,6-3.4c2.9,0,4.7,1.1,5.7,3.7c1.7-2.6,3.6-3.7,6.7-3.7c2.1-0.1,4.1,0.7,5.4,2.3
	c1,1.2,1.4,2.8,1.4,5.4v15h-4.2v-14.7c0-2.9-1.2-4.2-3.7-4.2c-2.9,0-4.7,2.1-4.7,5.5v13.4h-4.2V159c0-2.5-1.3-3.9-3.7-3.9
	c-2.8,0-4.7,2.1-4.7,5.3V174h-4.2v-22H1041.7z"/>
<path class="st0" d="M1077.3,151.8v2.4c1.7-1.9,4.2-2.9,6.7-2.9c5.9,0,9.8,4.7,9.8,11.8c0,7-3.7,11.5-9.4,11.5
	c-2.7,0.1-5.3-1-7.1-3.1v9.5h-4.2v-29.2H1077.3z M1077.1,162.9c0,5.3,2.2,8.3,6.3,8.3s6.2-2.9,6.2-8.1s-2.2-8.1-6.2-8.1
	S1077.1,157.8,1077.1,162.9L1077.1,162.9z"/>
<path class="st0" d="M1113.2,174.1v-2.5c-1.7,2.1-4.3,3.3-7,3.1c-2.3,0.2-4.5-0.7-6-2.4c-1.1-1.4-1.5-2.9-1.5-5.5V152h4.3v14.4
	c0,3,1.4,4.5,4.2,4.5c3.6,0,5.8-2.1,5.8-5.5V152h4.2v22.1L1113.2,174.1z"/>
<path class="st0" d="M1132.2,155.3h-4v13.9c0,1.3,0.6,2,1.6,2c0.8,0,1.6-0.2,2.3-0.6v3.4c-1.1,0.3-2.3,0.5-3.5,0.5
	c-3.2,0-4.7-1.7-4.7-5.4v-13.8h-3V152h3v-7h4.2v7h4L1132.2,155.3z"/>
<path class="st0" d="M1138.8,164.1c0.3,4.5,2.6,7.1,6.4,7.1c2.6,0,4.3-1.2,5.3-3.8h4c-1,4.6-4.6,7.4-9.5,7.4
	c-6.2,0-10.5-4.8-10.5-11.7s4.2-11.6,10.4-11.6c4.2-0.1,7.9,2.6,9,6.6c0.6,2,0.9,4,0.9,6.1H1138.8z M1150.4,161
	c-0.2-4-2.2-6.3-5.5-6.3s-5.9,2.6-6.1,6.3H1150.4z"/>
<path class="st0" d="M1163.8,152v3.5c0.5-0.8,1.1-1.6,1.8-2.3c1-1.1,2.4-1.7,3.9-1.7c0.8,0,1.6,0.2,2.3,0.6v3.8
	c-0.6-0.2-1.3-0.2-1.9-0.2c-3.4,0-6,3-6,6.9v11.6h-4.2V152H1163.8z"/>
<path class="st0" d="M1208.2,153c-0.5-4.2-3-6.3-7.6-6.3c-4.1,0-6.7,1.7-6.7,4.4c0,2.2,1.6,3.6,5.5,4.4l4.9,1.1
	c3.6,0.8,5.4,1.6,6.9,2.9c1.6,1.5,2.5,3.6,2.5,5.9c0,5.8-4.7,9.3-12.1,9.3c-7.9,0-12.7-4-13.3-11.3h4.5c0.5,4.9,3.7,7.5,8.9,7.5
	c4.4,0,7.5-2.1,7.5-5.2c0-2.3-1.7-3.8-4.8-4.6l-6.8-1.6c-5.6-1.3-8.1-3.8-8.1-7.9c0-5.3,4.4-8.7,11.4-8.7s10.8,3.2,11.7,10.1H1208.2
	z"/>
<path class="st0" d="M1234.4,159.5c-0.3-2.8-2.8-4.8-5.6-4.6c-4,0-6.7,3.2-6.7,8.1s2.7,8.2,6.7,8.2c3.3,0,5.2-1.8,5.8-5.4h4
	c-0.6,5.6-4.2,8.9-9.9,8.9c-6.6,0-10.9-4.6-10.9-11.7s4.3-11.6,11-11.6c5.4,0,8.9,3,9.5,8.1L1234.4,159.5z"/>
<path class="st0" d="M1247.4,148.5h-4.2v-4.9h4.2V148.5z M1247.4,174.1h-4.2V152h4.2V174.1z"/>
<path class="st0" d="M1256.6,164.1c0.3,4.5,2.6,7.1,6.4,7.1c2.6,0,4.3-1.2,5.3-3.8h4c-1,4.6-4.6,7.4-9.5,7.4
	c-6.2,0-10.5-4.8-10.5-11.7s4.2-11.6,10.4-11.6c4.2-0.1,7.9,2.6,9,6.6c0.6,2,0.9,4,0.9,6.1H1256.6z M1268.3,161
	c-0.2-4-2.2-6.3-5.5-6.3s-5.9,2.6-6.1,6.3H1268.3z"/>
<path class="st0" d="M1281.7,152v2.5c1.7-2.1,4.3-3.3,7-3.1c2.3-0.1,4.5,0.7,6,2.4c1,1.4,1.5,2.9,1.5,5.5v14.8h-4.2v-14.4
	c0-3-1.4-4.5-4.2-4.5c-3.6,0-5.8,2.1-5.8,5.5v13.4h-4.2V152H1281.7z"/>
<path class="st0" d="M1317.7,159.5c-0.3-2.8-2.8-4.8-5.6-4.6c-4,0-6.7,3.2-6.7,8.1s2.7,8.2,6.7,8.2c3.3,0,5.3-1.8,5.8-5.4h4
	c-0.6,5.6-4.2,8.9-9.9,8.9c-6.6,0-10.9-4.6-10.9-11.7s4.3-11.6,11-11.6c5.4,0,8.9,3,9.5,8.1L1317.7,159.5z"/>
<path class="st0" d="M1329.7,164.1c0.3,4.5,2.6,7.1,6.4,7.1c2.6,0,4.3-1.2,5.3-3.8h4c-1.1,4.6-4.6,7.4-9.5,7.4
	c-6.2,0-10.5-4.8-10.5-11.7s4.2-11.6,10.4-11.6c4.2-0.1,7.9,2.6,9,6.6c0.6,2,0.9,4,0.9,6.1H1329.7z M1341.3,161
	c-0.2-4-2.2-6.3-5.5-6.3s-5.9,2.6-6.1,6.3H1341.3z"/>
<path class="st0" d="M999.8,203.4c-0.5-4.2-3-6.3-7.6-6.3c-4.1,0-6.7,1.7-6.7,4.4c0,2.2,1.6,3.6,5.5,4.4l5,1.1
	c3.6,0.8,5.4,1.6,6.9,2.9c1.6,1.5,2.5,3.6,2.5,5.9c0,5.8-4.7,9.3-12.1,9.3c-7.9,0-12.7-4-13.3-11.3h4.5c0.5,4.8,3.7,7.5,8.9,7.5
	c4.4,0,7.5-2.1,7.5-5.2c0-2.3-1.6-3.8-4.8-4.6l-6.8-1.6c-5.6-1.3-8.1-3.8-8.1-7.9c0-5.4,4.4-8.7,11.4-8.7s10.7,3.2,11.7,10.1
	L999.8,203.4z"/>
<path class="st0" d="M1019.5,205.7h-4v13.8c0,1.3,0.6,2,1.6,2c0.8,0,1.6-0.2,2.3-0.6v3.4c-1.1,0.3-2.3,0.5-3.5,0.5
	c-3.2,0-4.7-1.7-4.7-5.4v-13.8h-3v-3.3h3v-7h4.2v7h4L1019.5,205.7z"/>
<path class="st0" d="M1037.6,224.4v-2.5c-1.7,2.1-4.3,3.3-7,3.1c-2.3,0.2-4.5-0.7-6-2.4c-1-1.4-1.5-2.9-1.5-5.5v-14.8h4.2v14.4
	c0,3,1.4,4.5,4.2,4.5c3.6,0,5.8-2.1,5.8-5.5v-13.4h4.2v22.1L1037.6,224.4z"/>
<path class="st0" d="M1067.5,224.4h-4.2V222c-1.8,2-4.3,3.1-7,3c-5.9,0-9.6-4.6-9.6-11.8s3.8-11.5,9.6-11.5c2.7-0.1,5.2,1,7,3v-10.8
	h4.2V224.4z M1050.9,213.4c0,5.2,2.3,8.1,6.3,8.1s6.3-2.9,6.3-8c0-5.3-2.2-8.2-6.3-8.2S1050.9,208.2,1050.9,213.4L1050.9,213.4z"/>
<path class="st0" d="M1092.4,202.4l-9.7,24.7c-1.2,3.1-2.9,4.3-5.6,4.3c-1.2,0-2.3-0.2-3.4-0.7v-3.4c0.8,0.4,1.7,0.6,2.7,0.6
	c1.4,0.1,2.7-0.9,3.1-2.3l0.6-1.7l-9.1-21.5h4.5l4.9,12.6c0.7,1.9,0.9,2.2,1.7,4.7c0.5-1.6,1.2-3.9,1.5-4.7l4.6-12.6L1092.4,202.4z"
	/>
<path class="st0" d="M1114.5,215.3l-3.1,9.1h-4.6l11.2-30.5h4.7l11.2,30.5h-4.8l-3.2-9.1L1114.5,215.3z M1120.2,198.6l-4.5,13h9
	L1120.2,198.6z"/>
<path class="st0" d="M1150.1,209.1c-0.6-2.8-2.1-3.9-5-3.9c-2.5,0-4.2,1.1-4.2,2.6c0,1.1,0.8,1.8,2.6,2.3l5.1,1.3
	c4.6,1.2,6.5,3.1,6.5,6.5c0,4.3-3.6,7.1-9.2,7.1c-6,0-9.6-2.9-10-8.2h4.1c0.2,2.9,2.4,4.7,5.9,4.7c3,0,5-1.3,5-3.4
	c0-1.5-1-2.2-3.5-2.9l-4.4-1.1c-1.7-0.3-3.3-1-4.7-2.1c-1.1-1-1.7-2.4-1.7-3.8c0-3.8,3.5-6.5,8.5-6.5c3.2,0,5.8,1.1,7.3,2.9
	c1,1.3,1.5,2.8,1.6,4.4L1150.1,209.1z"/>
<path class="st0" d="M1172.7,209.1c-0.6-2.8-2.1-3.9-5-3.9c-2.5,0-4.2,1.1-4.2,2.6c0,1.1,0.8,1.8,2.6,2.3l5.1,1.3
	c4.6,1.2,6.5,3.1,6.5,6.5c0,4.3-3.6,7.1-9.2,7.1c-6,0-9.6-2.9-10-8.2h4.2c0.2,2.9,2.4,4.7,5.9,4.7c3,0,5-1.3,5-3.4
	c0-1.5-1-2.2-3.5-2.9l-4.4-1.1c-1.7-0.3-3.3-1-4.7-2.1c-1.1-1-1.7-2.4-1.7-3.8c0-3.8,3.5-6.5,8.5-6.5c3.2,0,5.8,1.1,7.3,2.9
	c1,1.3,1.5,2.8,1.6,4.4L1172.7,209.1z"/>
<path class="st0" d="M1202.3,213.6c0,6.8-4.3,11.5-10.7,11.5s-10.6-4.7-10.6-11.6s4.3-11.6,10.6-11.6S1202.3,206.4,1202.3,213.6z
	 M1185.3,213.4c0,5.2,2.3,8.1,6.4,8.1s6.3-3,6.3-8c0-5.3-2.3-8.2-6.4-8.2S1185.3,208.2,1185.3,213.4L1185.3,213.4z"/>
<path class="st0" d="M1222.7,209.9c-0.3-2.8-2.8-4.8-5.6-4.6c-4,0-6.7,3.2-6.7,8s2.7,8.2,6.7,8.2c3.3,0,5.3-1.8,5.8-5.4h4
	c-0.6,5.6-4.2,8.9-9.9,8.9c-6.6,0-10.9-4.6-10.9-11.6s4.3-11.6,11-11.6c5.4,0,8.9,3,9.5,8.1L1222.7,209.9z"/>
<path class="st0" d="M1235.7,198.8h-4.2v-4.9h4.2V198.8z M1235.7,224.4h-4.2v-22.1h4.2V224.4z"/>
<path class="st0" d="M1241.7,209.7c0.2-2.6,0.7-4.1,1.8-5.4c1.4-1.6,4.1-2.5,7.2-2.5c5.5,0,8.6,2.6,8.6,7.2v10.4
	c0,1.7,0.2,2.1,1.2,2.1c0.4,0,0.7-0.1,1.1-0.2v3.2c-0.9,0.2-1.8,0.3-2.7,0.3c-2,0-2.9-0.9-3.3-3c-2,2.1-4.7,3.3-7.6,3.2
	c-4.3,0-7.2-2.6-7.2-6.5c0-3.6,2.2-5.8,6.7-6.7l4.9-1c2.7-0.5,3.2-0.9,3.2-2.3c0-2.1-1.9-3.5-4.8-3.5c-2.2,0-3.8,0.7-4.4,1.9
	c-0.4,0.8-0.6,1.8-0.5,2.7L1241.7,209.7z M1255.5,213.1c-0.8,0.3-1.7,0.6-2.6,0.8l-4.3,1c-2.6,0.6-3.7,1.6-3.7,3.4
	c0,2,1.7,3.4,4.1,3.4c3.6,0,6.5-2.6,6.5-5.8V213.1z"/>
<path class="st0" d="M1274.4,205.7h-4v13.8c0,1.3,0.6,2,1.7,2c0.8,0,1.6-0.2,2.3-0.6v3.4c-1.1,0.3-2.3,0.5-3.5,0.5
	c-3.2,0-4.7-1.7-4.7-5.4v-13.8h-3v-3.3h3v-7h4.2v7h4L1274.4,205.7z"/>
<path class="st0" d="M1282.6,198.8h-4.2v-4.9h4.2V198.8z M1282.6,224.4h-4.2v-22.1h4.2V224.4z"/>
<path class="st0" d="M1308.9,213.6c0,6.8-4.3,11.5-10.7,11.5s-10.6-4.7-10.6-11.6s4.3-11.6,10.6-11.6
	C1304.7,201.8,1308.9,206.4,1308.9,213.6z M1291.9,213.4c0,5.2,2.3,8.1,6.4,8.1s6.3-3,6.3-8c0-5.3-2.3-8.2-6.4-8.2
	S1291.9,208.2,1291.9,213.4L1291.9,213.4z"/>
<path class="st0" d="M1317.9,202.4v2.5c1.7-2.1,4.3-3.3,7-3.1c2.3-0.1,4.5,0.7,6,2.4c1,1.4,1.5,2.9,1.5,5.5v14.8h-4.2V210
	c0-3-1.4-4.5-4.2-4.5c-3.6,0-5.8,2.1-5.8,5.5v13.4h-4.2v-22.1H1317.9z"/>
<circle class="st0" cx="898.3" cy="220.1" r="4.3"/>
<circle class="st0" cx="898.3" cy="195.6" r="4.3"/>
<circle class="st0" cx="898.3" cy="171" r="4.3"/>
<circle class="st0" cx="898.3" cy="146.5" r="4.3"/>
<circle class="st0" cx="898.3" cy="121.9" r="4.3"/>
<circle class="st0" cx="898.3" cy="97.4" r="4.3"/>
<circle class="st0" cx="543.3" cy="79.5" r="6.9"/>
<circle class="st0" cx="650.6" cy="79.5" r="6.9"/>
<path class="st0" d="M279.8,75.5c0,18.8-15.2,34-34,34h-11.3c-17.8,0-34.6,8.4-45.3,22.7c-10.7-14.3-27.5-22.7-45.3-22.7h-11.3
	c-18.8,0-34-15.2-34-34H75.8c0,31.3,25.4,56.7,56.7,56.7h11.3c18.8,0,34,15.2,34,34l0,0h22.7c0-18.8,15.2-34,34-34l0,0h11.3
	c31.3,0,56.7-25.4,56.7-56.7H279.8z"/>
<polygon class="st0" points="189.1,245.5 206.1,188.9 172.1,188.9 "/>
<circle class="st0" cx="121.4" cy="188.9" r="22.7"/>
<ellipse transform="matrix(0.1152 -0.9933 0.9933 0.1152 39.6946 422.2523)" class="st0" cx="256.9" cy="188.8" rx="22.7" ry="22.7"/>
</svg>
